<svg width="32" height="32" viewBox="0 0 32 32" fill="none" xmlns="http://www.w3.org/2000/svg">
<path d="M25.1667 6.33333H22C22 2.83417 19.1658 0 15.6667 0C12.1675 0 9.33333 2.83417 9.33333 6.33333H6.16667C4.425 6.33333 3 7.75833 3 9.5V28.5C3 30.2417 4.425 31.6667 6.16667 31.6667H25.1667C26.9083 31.6667 28.3333 30.2417 28.3333 28.5V9.5C28.3333 7.75833 26.9083 6.33333 25.1667 6.33333ZM15.6667 3.16667C17.4083 3.16667 18.8333 4.59167 18.8333 6.33333H12.5C12.5 4.59167 13.925 3.16667 15.6667 3.16667ZM25.1667 28.5H6.16667V9.5H9.33333V12.6667C9.33333 13.5375 10.0458 14.25 10.9167 14.25C11.7875 14.25 12.5 13.5375 12.5 12.6667V9.5H18.8333V12.6667C18.8333 13.5375 19.5458 14.25 20.4167 14.25C21.2875 14.25 22 13.5375 22 12.6667V9.5H25.1667V28.5Z" fill="#002F52"/>
</svg>
