<svg width="32" height="32" viewBox="0 0 32 32" fill="none" xmlns="http://www.w3.org/2000/svg">
<path d="M22.3 3C19.864 3 17.526 4.14768 16 5.96131C14.474 4.14768 12.136 3 9.7 3C5.388 3 2 6.42888 2 10.7929C2 16.1488 6.76 20.5128 13.97 27.1439L16 29L18.03 27.1297C25.24 20.5128 30 16.1488 30 10.7929C30 6.42888 26.612 3 22.3 3ZM16.14 25.0327L16 25.1744L15.86 25.0327C9.196 18.9259 4.8 14.8877 4.8 10.7929C4.8 7.95913 6.9 5.83379 9.7 5.83379C11.856 5.83379 13.956 7.23651 14.698 9.17766H17.316C18.044 7.23651 20.144 5.83379 22.3 5.83379C25.1 5.83379 27.2 7.95913 27.2 10.7929C27.2 14.8877 22.804 18.9259 16.14 25.0327Z" fill="url(#paint0_linear_120_596)"/>
<defs>
<linearGradient id="paint0_linear_120_596" x1="13.6991" y1="-0.120009" x2="54.0596" y2="5.63527" gradientUnits="userSpaceOnUse">
<stop stop-color="#002F52"/>
<stop offset="1" stop-color="#326589"/>
</linearGradient>
</defs>
</svg>
