<svg width="158" height="20" viewBox="0 0 158 20" fill="none" xmlns="http://www.w3.org/2000/svg">
<path d="M9.036 2.364V10.968C9.036 12.3 8.658 13.326 7.902 14.046C7.158 14.766 6.15 15.126 4.878 15.126C3.546 15.126 2.478 14.748 1.674 13.992C0.87 13.236 0.468 12.162 0.468 10.77H3.528C3.528 11.298 3.636 11.7 3.852 11.976C4.068 12.24 4.38 12.372 4.788 12.372C5.16 12.372 5.448 12.252 5.652 12.012C5.856 11.772 5.958 11.424 5.958 10.968V2.364H9.036ZM21.4403 4.956V15H18.3623V13.632C18.0503 14.076 17.6243 14.436 17.0843 14.712C16.5563 14.976 15.9683 15.108 15.3203 15.108C14.5523 15.108 13.8743 14.94 13.2863 14.604C12.6983 14.256 12.2423 13.758 11.9183 13.11C11.5943 12.462 11.4323 11.7 11.4323 10.824V4.956H14.4923V10.41C14.4923 11.082 14.6663 11.604 15.0143 11.976C15.3623 12.348 15.8303 12.534 16.4183 12.534C17.0183 12.534 17.4923 12.348 17.8403 11.976C18.1883 11.604 18.3623 11.082 18.3623 10.41V4.956H21.4403ZM26.7292 1.68V15H23.6512V1.68H26.7292ZM30.5078 3.912C29.9678 3.912 29.5238 3.756 29.1758 3.444C28.8398 3.12 28.6718 2.724 28.6718 2.256C28.6718 1.776 28.8398 1.38 29.1758 1.068C29.5238 0.743999 29.9678 0.581999 30.5078 0.581999C31.0358 0.581999 31.4678 0.743999 31.8038 1.068C32.1518 1.38 32.3258 1.776 32.3258 2.256C32.3258 2.724 32.1518 3.12 31.8038 3.444C31.4678 3.756 31.0358 3.912 30.5078 3.912ZM32.0378 4.956V15H28.9598V4.956H32.0378ZM33.6563 9.96C33.6563 8.928 33.8483 8.022 34.2323 7.242C34.6283 6.462 35.1623 5.862 35.8343 5.442C36.5063 5.022 37.2563 4.812 38.0843 4.812C38.7923 4.812 39.4103 4.956 39.9383 5.244C40.4783 5.532 40.8923 5.91 41.1803 6.378V4.956H44.2583V15H41.1803V13.578C40.8803 14.046 40.4603 14.424 39.9203 14.712C39.3923 15 38.7743 15.144 38.0663 15.144C37.2503 15.144 36.5063 14.934 35.8343 14.514C35.1623 14.082 34.6283 13.476 34.2323 12.696C33.8483 11.904 33.6563 10.992 33.6563 9.96ZM41.1803 9.978C41.1803 9.21 40.9643 8.604 40.5323 8.16C40.1123 7.716 39.5963 7.494 38.9843 7.494C38.3723 7.494 37.8503 7.716 37.4183 8.16C36.9983 8.592 36.7883 9.192 36.7883 9.96C36.7883 10.728 36.9983 11.34 37.4183 11.796C37.8503 12.24 38.3723 12.462 38.9843 12.462C39.5963 12.462 40.1123 12.24 40.5323 11.796C40.9643 11.352 41.1803 10.746 41.1803 9.978ZM52.6051 4.848C53.7811 4.848 54.7171 5.232 55.4131 6C56.1211 6.756 56.4751 7.8 56.4751 9.132V15H53.4151V9.546C53.4151 8.874 53.2411 8.352 52.8931 7.98C52.5451 7.608 52.0771 7.422 51.4891 7.422C50.9011 7.422 50.4331 7.608 50.0851 7.98C49.7371 8.352 49.5631 8.874 49.5631 9.546V15H46.4851V4.956H49.5631V6.288C49.8751 5.844 50.2951 5.496 50.8231 5.244C51.3511 4.98 51.9451 4.848 52.6051 4.848ZM58.002 9.96C58.002 8.928 58.194 8.022 58.578 7.242C58.974 6.462 59.508 5.862 60.18 5.442C60.852 5.022 61.602 4.812 62.43 4.812C63.138 4.812 63.756 4.956 64.284 5.244C64.824 5.532 65.238 5.91 65.526 6.378V4.956H68.604V15H65.526V13.578C65.226 14.046 64.806 14.424 64.266 14.712C63.738 15 63.12 15.144 62.412 15.144C61.596 15.144 60.852 14.934 60.18 14.514C59.508 14.082 58.974 13.476 58.578 12.696C58.194 11.904 58.002 10.992 58.002 9.96ZM65.526 9.978C65.526 9.21 65.31 8.604 64.878 8.16C64.458 7.716 63.942 7.494 63.33 7.494C62.718 7.494 62.196 7.716 61.764 8.16C61.344 8.592 61.134 9.192 61.134 9.96C61.134 10.728 61.344 11.34 61.764 11.796C62.196 12.24 62.718 12.462 63.33 12.462C63.942 12.462 64.458 12.24 64.878 11.796C65.31 11.352 65.526 10.746 65.526 9.978ZM82.5113 12.768H77.7953L77.0393 15H73.8173L78.3893 2.364H81.9533L86.5253 15H83.2673L82.5113 12.768ZM81.7193 10.392L80.1533 5.766L78.6053 10.392H81.7193ZM91.7328 4.812C92.4408 4.812 93.0588 4.956 93.5868 5.244C94.1268 5.532 94.5408 5.91 94.8288 6.378V4.956H97.9068V14.982C97.9068 15.906 97.7208 16.74 97.3488 17.484C96.9888 18.24 96.4308 18.84 95.6748 19.284C94.9308 19.728 94.0008 19.95 92.8848 19.95C91.3968 19.95 90.1908 19.596 89.2668 18.888C88.3428 18.192 87.8148 17.244 87.6828 16.044H90.7248C90.8208 16.428 91.0488 16.728 91.4088 16.944C91.7688 17.172 92.2128 17.286 92.7408 17.286C93.3768 17.286 93.8808 17.1 94.2528 16.728C94.6368 16.368 94.8288 15.786 94.8288 14.982V13.56C94.5288 14.028 94.1148 14.412 93.5868 14.712C93.0588 15 92.4408 15.144 91.7328 15.144C90.9048 15.144 90.1548 14.934 89.4828 14.514C88.8108 14.082 88.2768 13.476 87.8808 12.696C87.4968 11.904 87.3048 10.992 87.3048 9.96C87.3048 8.928 87.4968 8.022 87.8808 7.242C88.2768 6.462 88.8108 5.862 89.4828 5.442C90.1548 5.022 90.9048 4.812 91.7328 4.812ZM94.8288 9.978C94.8288 9.21 94.6128 8.604 94.1808 8.16C93.7608 7.716 93.2448 7.494 92.6328 7.494C92.0208 7.494 91.4988 7.716 91.0668 8.16C90.6468 8.592 90.4368 9.192 90.4368 9.96C90.4368 10.728 90.6468 11.34 91.0668 11.796C91.4988 12.24 92.0208 12.462 92.6328 12.462C93.2448 12.462 93.7608 12.24 94.1808 11.796C94.6128 11.352 94.8288 10.746 94.8288 9.978ZM99.5216 9.96C99.5216 8.928 99.7136 8.022 100.098 7.242C100.494 6.462 101.028 5.862 101.7 5.442C102.372 5.022 103.122 4.812 103.95 4.812C104.658 4.812 105.276 4.956 105.804 5.244C106.344 5.532 106.758 5.91 107.046 6.378V4.956H110.124V15H107.046V13.578C106.746 14.046 106.326 14.424 105.786 14.712C105.258 15 104.64 15.144 103.932 15.144C103.116 15.144 102.372 14.934 101.7 14.514C101.028 14.082 100.494 13.476 100.098 12.696C99.7136 11.904 99.5216 10.992 99.5216 9.96ZM107.046 9.978C107.046 9.21 106.83 8.604 106.398 8.16C105.978 7.716 105.462 7.494 104.85 7.494C104.238 7.494 103.716 7.716 103.284 8.16C102.864 8.592 102.654 9.192 102.654 9.96C102.654 10.728 102.864 11.34 103.284 11.796C103.716 12.24 104.238 12.462 104.85 12.462C105.462 12.462 105.978 12.24 106.398 11.796C106.83 11.352 107.046 10.746 107.046 9.978ZM115.428 6.63C115.788 6.078 116.238 5.646 116.778 5.334C117.318 5.01 117.918 4.848 118.578 4.848V8.106H117.732C116.964 8.106 116.388 8.274 116.004 8.61C115.62 8.934 115.428 9.51 115.428 10.338V15H112.35V4.956H115.428V6.63ZM121.598 3.912C121.058 3.912 120.614 3.756 120.266 3.444C119.93 3.12 119.762 2.724 119.762 2.256C119.762 1.776 119.93 1.38 120.266 1.068C120.614 0.743999 121.058 0.581999 121.598 0.581999C122.126 0.581999 122.558 0.743999 122.894 1.068C123.242 1.38 123.416 1.776 123.416 2.256C123.416 2.724 123.242 3.12 122.894 3.444C122.558 3.756 122.126 3.912 121.598 3.912ZM123.128 4.956V15H120.05V4.956H123.128ZM131.496 15L128.436 10.788V15H125.358V1.68H128.436V9.042L131.478 4.956H135.276L131.1 9.996L135.312 15H131.496ZM141.057 15.144C140.073 15.144 139.185 14.934 138.393 14.514C137.613 14.094 136.995 13.494 136.539 12.714C136.095 11.934 135.873 11.022 135.873 9.978C135.873 8.946 136.101 8.04 136.557 7.26C137.013 6.468 137.637 5.862 138.429 5.442C139.221 5.022 140.109 4.812 141.093 4.812C142.077 4.812 142.965 5.022 143.757 5.442C144.549 5.862 145.173 6.468 145.629 7.26C146.085 8.04 146.313 8.946 146.313 9.978C146.313 11.01 146.079 11.922 145.611 12.714C145.155 13.494 144.525 14.094 143.721 14.514C142.929 14.934 142.041 15.144 141.057 15.144ZM141.057 12.48C141.645 12.48 142.143 12.264 142.551 11.832C142.971 11.4 143.181 10.782 143.181 9.978C143.181 9.174 142.977 8.556 142.569 8.124C142.173 7.692 141.681 7.476 141.093 7.476C140.493 7.476 139.995 7.692 139.599 8.124C139.203 8.544 139.005 9.162 139.005 9.978C139.005 10.782 139.197 11.4 139.581 11.832C139.977 12.264 140.469 12.48 141.057 12.48ZM152.464 12.12L154.642 4.956H157.918L154.354 15H150.556L146.992 4.956H150.286L152.464 12.12Z" fill="#002F52"/>
</svg>
